<?xml version="1.0" encoding="UTF-8"?><svg id="Layer_1" xmlns="http://www.w3.org/2000/svg" xmlns:xlink="http://www.w3.org/1999/xlink" viewBox="0 0 16 16"><defs><style>.cls-1{clip-path:url(#clippath);}.cls-2{fill:none;}.cls-2,.cls-3,.cls-4{stroke-width:0px;}.cls-3{fill:#5e35b1;}.cls-4{fill:#fff;}</style><clipPath id="clippath"><rect class="cls-2" width="16" height="16"/></clipPath></defs><g class="cls-1"><g id="slider_revolution"><rect class="cls-3" width="16" height="16"/><path class="cls-4" d="m5.02,8.02c0-.73.27-1.44.77-1.98l1.35,1.35V3.33H3.1l1.43,1.45c-1.79,1.89-1.71,4.88.18,6.67.84.8,1.94,1.25,3.16,1.29v-1.78c-1.63-.08-2.86-1.37-2.86-2.94Z"/><path class="cls-4" d="m8.74,8.65v4.02h4.06l-1.42-1.4c1.8-1.89,1.72-4.87-.16-6.67-.85-.81-1.97-1.27-3.21-1.3v1.78c1.69.06,2.96,1.43,2.9,3.05-.03.7-.3,1.37-.78,1.88l-1.38-1.37Z"/></g></g></svg>