<svg id="icons" enable-background="new 0 0 64 64" height="512" viewBox="0 0 64 64" width="512" xmlns="http://www.w3.org/2000/svg"><path d="m1 58c0 .55.45 1 1 1h60c.55 0 1-.45 1-1v-49h-62z" fill="#e6e9ed"/><path d="m63 7v2h-62v-2c0-1.109.89-2 2-2h58c1.11 0 2 .891 2 2z" fill="#ccd1d9"/><path d="m4.006 5.998h-.01c-.553 0-.995.448-.995 1s.452 1 1.005 1 1-.448 1-1-.447-1-1-1z" fill="#e6e9ed"/><path d="m7.005 5.998h-.01c-.552 0-.995.447-.995 1s.453 1 1.005 1c.553 0 1-.448 1-1s-.447-1-1-1z" fill="#e6e9ed"/><path d="m10.008 5.998h-.01c-.553 0-.995.448-.995 1s.452 1 1.005 1 1-.448 1-1-.447-1-1-1z" fill="#e6e9ed"/><path d="m63 44v4h-62v-4h10.01 12 34.011z" fill="#f5f7fa"/><path d="m1 9v35h10.01l11.99-17h.01l5.99 8.49.021.02 10.979-15.51h.021l17 24h5.979v-35z" fill="#5d9cec"/><path d="m48 52.997h-32c-.553 0-1-.447-1-1s.447-1 1-1h32c.553 0 1 .447 1 1s-.447 1-1 1z" fill="#ccd1d9"/><path d="m40.993 56h-17.986c-.553 0-1-.447-1-1s.447-1 1-1h17.986c.553 0 1 .447 1 1s-.447 1-1 1z" fill="#ccd1d9"/><g fill="#4a89dc"><path d="m4 27c-.256 0-.512-.098-.707-.293-.391-.391-.391-1.023 0-1.414l1.999-1.999c.391-.391 1.023-.391 1.414 0s.391 1.023 0 1.414l-1.999 1.999c-.195.195-.451.293-.707.293z"/><path d="m5.999 29c-.256 0-.512-.098-.707-.293l-1.999-2c-.391-.391-.391-1.023 0-1.414s1.023-.391 1.414 0l1.999 2c.391.391.391 1.023 0 1.414-.195.195-.451.293-.707.293z"/><path d="m60.001 27c-.256 0-.512-.098-.707-.293l-1.999-1.999c-.391-.391-.391-1.023 0-1.414s1.023-.391 1.414 0l1.999 1.999c.391.391.391 1.023 0 1.414-.195.195-.451.293-.707.293z"/><path d="m58.002 29c-.256 0-.512-.098-.707-.293-.391-.391-.391-1.023 0-1.414l1.999-2c.391-.391 1.023-.391 1.414 0s.391 1.023 0 1.414l-1.999 2c-.195.195-.451.293-.707.293z"/></g><path d="m29.025 47.001c-.553 0-1.005-.447-1.005-1s.442-1 .994-1h.011c.552 0 1 .447 1 1s-.448 1-1 1z" fill="#e6e9ed"/><path d="m32.024 47.001c-.553 0-1.005-.447-1.005-1s.442-1 .994-1h.011c.552 0 1 .447 1 1s-.448 1-1 1z" fill="#e6e9ed"/><path d="m35.027 47.001c-.553 0-1.005-.447-1.005-1s.442-1 .994-1h.011c.552 0 1 .447 1 1s-.448 1-1 1z" fill="#e6e9ed"/><path d="m24.235 44h31.56 2.451l-17.431-24.578c-.033-.047-.08-.074-.119-.113-.041-.041-.069-.09-.118-.125-.009-.006-.02-.007-.028-.013-.063-.042-.135-.063-.205-.091-.052-.02-.101-.047-.154-.058-.067-.013-.135-.005-.203-.005-.06.001-.118-.007-.177.004-.06.012-.113.043-.171.065-.064.025-.13.046-.189.085-.009.006-.02.006-.028.012-.048.035-.076.083-.116.123-.04.041-.088.068-.122.115l-17.402 24.579z" fill="#656d78"/><path d="m23.817 26.424c-.034-.049-.083-.076-.123-.117-.041-.04-.069-.09-.118-.124-.008-.006-.019-.006-.026-.012-.062-.04-.129-.062-.197-.087-.055-.021-.106-.051-.163-.063-.063-.012-.125-.004-.189-.004-.063 0-.127-.008-.189.004-.057.012-.108.041-.163.063-.067.025-.136.047-.197.087-.008.005-.019.006-.026.012-.049.034-.077.084-.118.125-.04.04-.089.068-.123.116l-12.399 17.576h2.447 9.55l7.229-10.211z" fill="#545c66"/><path d="m17 13.5c1.937 0 3.5 1.563 3.5 3.5s-1.563 3.5-3.5 3.5-3.5-1.563-3.5-3.5 1.563-3.5 3.5-3.5z" fill="#ffce54"/></svg>